<svg width="120" height="20" viewBox="0 0 120 20" fill="none" xmlns="http://www.w3.org/2000/svg">
<g clip-path="url(#clip0_3535_393)">
<path fill-rule="evenodd" clip-rule="evenodd" d="M13.4209 0C17.8412 0.000133238 20.3767 2.4002 20.377 5.67188C20.377 9.23606 18.0213 12.218 14.2891 12.7998L17.4062 20H12.3926L9.48047 13.1279H6.53906L5.02148 20H0L4.41602 0H13.4209ZM7.46289 8.94531H12.333C14.2541 8.9453 15.377 7.67214 15.377 6.14551C15.3767 4.98119 14.507 4.18166 13.0215 4.18164H8.51465L7.46289 8.94531Z" fill="currentColor"/>
<path fill-rule="evenodd" clip-rule="evenodd" d="M41.7793 20H36.7705L36.04 16.6885L26.7549 16.6836L24.8047 20H19.7939L31.4551 0H37.3857L41.7793 20ZM29.1904 12.5098H35.1172L33.4893 5.13867L29.1904 12.5098Z" fill="currentColor"/>
<path fill-rule="evenodd" clip-rule="evenodd" d="M57.0576 0C61.334 0 63.9785 2.36371 63.9785 5.74512C63.9784 9.52785 61.0803 13.1279 56.2969 13.1279L50.7012 13.1221L49.1689 20H44.1611L48.5771 0H57.0576ZM51.626 8.94531H56.0801C57.855 8.94523 59.0146 7.6721 59.0146 6.14551C59.0145 4.90856 58.0726 4.18164 56.5508 4.18164H52.6709L51.626 8.94531Z" fill="currentColor"/>
<path d="M68.998 20H63.9766L68.3916 0H73.4141L68.998 20Z" fill="currentColor"/>
<path fill-rule="evenodd" clip-rule="evenodd" d="M83.7822 0C87.1371 0.000109714 89.976 1.17251 91.708 3.25977C92.8561 4.64366 93.5186 6.43004 93.5186 8.5459C93.5185 11.9354 92.1856 15.9301 88.4336 18.1943C86.5911 19.3055 84.1658 20 81.0273 20H72.9316L77.3477 0H83.7822ZM81.4453 4.18359L78.876 15.8232H81.6455C85.9612 15.8232 88.5447 12.6168 88.5449 9.00781C88.5449 6.32795 86.9326 4.18164 84.0576 4.18164L81.4453 4.18359Z" fill="currentColor"/>
<path d="M110.968 4.77543e-07C109.796 4.77543e-07 97.9179 4.77543e-07 95.1421 4.77543e-07C95.3827 0.243863 95.6171 0.494517 95.8369 0.759468C97.6111 2.89747 98.5486 5.58987 98.5486 8.54547C98.5486 13.1068 96.6164 17.2232 93.5183 19.9998H103.212L107.812 8.60088H102.043L103.01 4.17906H114.453L108.442 19.9998C108.442 19.9998 109.226 19.9998 110.794 19.9998C116.288 20.0348 120 15.4964 120 9.98287C120 4.46963 116.462 4.77543e-07 110.968 4.77543e-07" fill="#E85E26"/>
</g>
<defs>
<clipPath id="clip0_3535_393">
<rect width="120" height="20" fill="currentColor"/>
</clipPath>
</defs>
</svg>
